<svg width="92" height="64" xmlns="http://www.w3.org/2000/svg" xmlns:xlink="http://www.w3.org/1999/xlink" xml:space="preserve" overflow="hidden"><defs><clipPath id="clip0"><rect x="120" y="30" width="92" height="64"/></clipPath></defs><g clip-path="url(#clip0)" transform="translate(-120 -30)"><path d="M8.72516 12.4122 5.41455 12.4122 5.41455 14.9803C5.4094 15.7331 5.78068 16.1921 6.50778 16.3468 6.57481 16.3623 6.66248 16.3777 6.78108 16.3984 6.89969 16.419 7.11627 16.4602 7.43083 16.517 7.74539 16.5737 8.17855 16.651 8.72516 16.749L8.72516 33.0185C10.0814 35.5556 12.7061 39.7686 16.9192 44.0126L28.6559 44.0126 28.6559 40.9443 28.6559 39.3148 28.6559 35.6845 28.4651 35.6845 27.9339 35.6845 26.1342 35.6845C25.5722 35.6845 25.2318 35.9578 25.1132 36.4992 25.0565 36.8396 24.9482 37.7781 24.7986 39.3148L14.6451 39.3148 14.6451 30.3731 25.3298 30.3731 25.3298 25.8506 14.6451 25.8506 14.6451 17.0894 24.7986 17.0894C24.9482 18.6261 25.0565 19.5594 25.1132 19.8998 25.2318 20.4412 25.5722 20.7145 26.1342 20.7145L27.9339 20.7145 28.4651 20.7145 28.6559 20.7145 28.6559 17.0894 28.6559 15.4547 28.6559 12.4122 8.72516 12.4122Z" fill="#ffffff" transform="matrix(1.0014 0 0 1 120.069 30)"/><path d="M7.65772 39.8666C7.58553 39.882 7.49271 39.8975 7.42567 39.9078 7.11111 39.9646 6.89453 40.0006 6.77593 40.0264 6.65732 40.0471 6.5645 40.0625 6.50262 40.078 5.77037 40.2327 5.4094 40.6865 5.4094 41.4445L5.4094 44.0126 8.72001 44.0126 11.7728 44.0126 7.80727 40.243 7.65772 39.8666Z" fill="#ffffff" transform="matrix(1.0014 0 0 1 120.069 30)"/><path d="M58.1213 56.167C49.159 65.1293 30.4968 61.004 16.4396 46.9467 2.38756 32.8895-1.74297 14.2274 7.22456 5.26501 15.4598-2.97027 31.8891-0.144388 45.4049 11.2726 45.4461 11.2159 45.4925 11.154 45.5338 11.0973 31.2806-0.830231 13.9283-3.65611 5.13609 5.13609-4.46572 14.7379-0.216582 34.5448 14.6193 49.3859 29.4552 64.2269 49.2673 68.4657 58.8691 58.8691 62.1797 55.5585 63.8401 51.0412 63.9948 45.9309 63.5668 45.7813 63.1646 45.5957 62.7882 45.3843 62.4427 49.6282 60.9214 53.3669 58.1213 56.167Z" fill="#ffffff" transform="matrix(1.0014 0 0 1 120.069 30)"/><path d="M41.5631 40.0728C41.5013 40.0625 41.4084 40.0471 41.2898 40.0213 41.1712 40.0006 40.9546 39.9594 40.6401 39.9027 40.3255 39.8459 39.8924 39.7686 39.3509 39.6758L39.3509 11.5356 33.9518 11.5356 30.6412 11.5356 30.6412 14.1036C30.6412 14.8565 31.0073 15.3154 31.7344 15.4701 31.7963 15.4805 31.8891 15.4959 32.0077 15.5217 32.1263 15.5423 32.3429 15.5836 32.6575 15.6403 32.972 15.697 33.4052 15.7744 33.9518 15.8672L33.9518 39.6758C33.4052 39.7738 32.9772 39.8511 32.6575 39.9027 32.3429 39.9594 32.1263 40.0006 32.0077 40.0213 31.8891 40.0419 31.7963 40.0574 31.7344 40.0728 31.0073 40.2275 30.6412 40.6865 30.6412 41.4394L30.6412 44.0074 33.9518 44.0074 39.3509 44.0074 42.6615 44.0074 42.6615 41.4394C42.6615 40.6865 42.2954 40.2327 41.5631 40.0728Z" fill="#ffffff" transform="matrix(1.0014 0 0 1 120.069 30)"/><path d="M55.1098 40.078C55.0479 40.0677 54.9551 40.0522 54.8365 40.0264 54.7179 40.0058 54.5013 39.9646 54.1868 39.9078 53.8722 39.8511 53.439 39.7738 52.8924 39.6809L52.8924 21.5912 47.4934 21.5912 44.1827 21.5912 44.1827 24.1592C44.1827 24.9121 44.5489 25.371 45.276 25.5257 45.3378 25.5361 45.4307 25.5515 45.5493 25.5773 45.6679 25.5979 45.8845 25.6392 46.199 25.6959 46.5136 25.7526 46.9467 25.83 47.4882 25.9228L47.4882 39.6809C46.9416 39.7789 46.5136 39.8563 46.199 39.9078 45.8845 39.9646 45.6679 40.0058 45.5493 40.0264 45.4307 40.0471 45.3378 40.0625 45.276 40.078 44.5489 40.2327 44.1827 40.6917 44.1827 41.4445L44.1827 44.0126 47.4934 44.0126 52.8924 44.0126 56.203 44.0126 56.203 41.4445C56.203 40.6865 55.8421 40.2327 55.1098 40.078Z" fill="#ffffff" transform="matrix(1.0014 0 0 1 120.069 30)"/><path d="M69.0948 39.3922C68.9917 39.3097 68.8628 39.2736 68.7029 39.2736 68.574 39.2736 68.4399 39.3148 68.311 39.3922 68.1821 39.4695 68.0326 39.5572 67.8624 39.6448 67.6974 39.7325 67.4963 39.815 67.2745 39.8975 67.0476 39.9749 66.7692 40.0161 66.434 40.0161 65.8513 40.0161 65.3872 39.8202 65.0365 39.4282 64.6858 39.0363 64.5105 38.4897 64.5105 37.7884L64.5105 25.634 70.4098 25.634 70.4098 21.7871 64.5105 21.7871 64.5105 14.7276 61.7156 14.7276C61.3959 14.7276 61.1277 14.8049 60.9163 14.9699 60.7049 15.1298 60.5708 15.3567 60.5141 15.6455L59.3796 21.7665 55.775 22.3544 55.775 24.4944C55.775 24.8708 55.8833 25.1596 56.0896 25.3453 56.301 25.5361 56.5537 25.6289 56.8425 25.6289L59.1166 25.6289 59.1166 38.1494C59.1166 40.0883 59.6426 41.6044 60.6894 42.7079 61.7362 43.8063 63.2317 44.3581 65.1706 44.3581 66.2638 44.3581 67.3209 44.1931 68.3368 43.8579 69.3578 43.5227 70.2603 43.0276 71.0441 42.3727L69.4249 39.748C69.3063 39.5881 69.198 39.4695 69.0948 39.3922Z" fill="#ffffff" transform="matrix(1.0014 0 0 1 120.069 30)"/><path d="M91.0985 33.3794C91.2584 33.3124 91.3873 33.2041 91.4801 33.0494 91.573 32.8947 91.64 32.6833 91.6761 32.4151 91.7122 32.147 91.7328 31.8066 91.7328 31.3992 91.7328 29.78 91.4905 28.3413 91.0109 27.0831 90.5313 25.8248 89.8609 24.7574 88.9998 23.8911 88.1386 23.0247 87.1176 22.3647 85.9315 21.916 84.7455 21.4623 83.4408 21.2405 82.0279 21.2405 80.352 21.2405 78.8462 21.5293 77.5158 22.112 76.1802 22.6947 75.056 23.4837 74.1278 24.4841 73.2047 25.4845 72.4931 26.6551 71.9981 28.001 71.503 29.3469 71.2555 30.7856 71.2555 32.3171 71.2555 34.2818 71.5391 36.0145 72.1064 37.5048 72.6736 39.0002 73.4523 40.2533 74.4475 41.264 75.4376 42.2748 76.603 43.0431 77.9438 43.5588 79.2845 44.0745 80.7335 44.3323 82.2909 44.3323 83.0799 44.3323 83.8895 44.2756 84.73 44.157 85.5654 44.0384 86.3905 43.8372 87.2001 43.5536 88.0097 43.27 88.7832 42.8884 89.5257 42.4191 90.2683 41.9447 90.9387 41.3569 91.5369 40.6607L89.9641 38.696C89.8455 38.5361 89.7114 38.4124 89.5464 38.3247 89.3865 38.237 89.1957 38.1958 88.9791 38.1958 88.6439 38.1958 88.2984 38.2989 87.9426 38.5 87.5868 38.7012 87.1691 38.928 86.6947 39.1756 86.2203 39.4231 85.6685 39.65 85.0342 39.8511 84.4 40.0574 83.6471 40.1553 82.7704 40.1553 80.9914 40.1553 79.563 39.619 78.4852 38.5361 77.4075 37.4584 76.7887 35.767 76.6288 33.4671L90.4849 33.4671C90.7324 33.4774 90.9335 33.4465 91.0985 33.3794ZM76.7371 30.2235C76.9846 28.594 77.5519 27.3306 78.444 26.4436 79.3309 25.5567 80.5634 25.108 82.1362 25.108 82.9355 25.108 83.6368 25.2421 84.235 25.5103 84.8331 25.7784 85.3282 26.1497 85.7201 26.6138 86.112 27.0779 86.4059 27.6245 86.5916 28.2433 86.7824 28.8621 86.8752 29.5222 86.8752 30.2235L76.7371 30.2235Z" fill="#ffffff" transform="matrix(1.0014 0 0 1 120.069 30)"/><path d="M49.654 9.4832C49.654 9.4832 49.5921 14.9699 43.9507 14.9648 43.9507 14.9648 49.4529 15.826 49.5612 20.5547 49.5612 20.5547 49.6489 16.089 54.9293 14.9287 54.9345 14.9287 49.8861 15.0473 49.654 9.4832Z" fill="#ffffff" transform="matrix(1.0014 0 0 1 120.069 30)"/><path d="M55.0944 5.12578C55.0944 5.12578 55.0583 8.28684 51.8095 8.28684 51.8095 8.28684 54.9809 8.78189 55.0428 11.5098 55.0428 11.5098 55.0944 8.93659 58.1368 8.26622 58.142 8.26622 55.2336 8.33325 55.0944 5.12578Z" fill="#ffffff" transform="matrix(1.0014 0 0 1 120.069 30)"/><path d="M47.2201 1.85642C47.2201 1.85642 47.184 5.01748 43.9352 5.01748 43.9352 5.01748 47.1066 5.51253 47.1685 8.24043 47.1685 8.24043 47.2201 5.66723 50.2625 4.99686 50.2625 4.99686 47.3541 5.0639 47.2201 1.85642Z" fill="#ffffff" transform="matrix(1.0014 0 0 1 120.069 30)"/></g></svg>